<?xml version="1.0" encoding="utf-8"?>
<!-- Generator: Adobe Illustrator 22.1.0, SVG Export Plug-In . SVG Version: 6.00 Build 0)  -->
<svg version="1.1" id="Capa_1" xmlns="http://www.w3.org/2000/svg" xmlns:xlink="http://www.w3.org/1999/xlink" x="0px" y="0px"
	 viewBox="0 0 169 95" style="enable-background:new 0 0 169 95;" xml:space="preserve">
<style type="text/css">
	.st0{fill-rule:evenodd;clip-rule:evenodd;fill:#2A90C9;}
	.st1{fill:#006EB1;}
	.st2{fill-rule:evenodd;clip-rule:evenodd;fill:#004995;}
	.st3{fill-rule:evenodd;clip-rule:evenodd;fill:#006EB1;}
	.st4{fill-rule:evenodd;clip-rule:evenodd;fill:#003D7A;}
	.st5{fill-rule:evenodd;clip-rule:evenodd;fill:#002B62;}
	.st6{fill-rule:evenodd;clip-rule:evenodd;}
</style>
<g>
	<polygon points="88.2,13 91.6,15.1 92.4,20.9 96.9,23.2 111.6,57.8 113.3,57.8 97.4,22.1 93,19.4 92.3,14 88.3,11.4 	"/>
	<polygon points="80.6,3.1 88.5,7.7 88.7,6 79.5,0.8 56.3,57.9 59.2,57.9 	"/>
	<polygon class="st0" points="58.9,57.9 84.4,57.9 89,6.8 80.6,2.1 	"/>
	<polygon class="st1" points="88.1,16 97.5,57.9 84.2,57.9 	"/>
	<polygon class="st2" points="111.8,57.8 99.2,57.9 92.7,20.1 96.8,22.6 	"/>
	<polygon class="st3" points="88.4,12.2 91.7,14.4 92.3,19.8 88,16.9 	"/>
	<polygon class="st4" points="82.8,57.9 84.4,57.9 88.5,11.9 82.9,8.6 	"/>
	<polygon class="st5" points="99.6,57.9 97,57.9 88,16.9 93,20.2 	"/>
</g>
<g>
	<g>
		<g>
			<path d="M18.9,67.5c1.5,0,2.9,0.6,4,1.7c1.1,1.1,1.7,2.5,1.7,4.1c0,1.6-0.5,2.9-1.6,4c-1.1,1.1-2.4,1.7-4,1.7
				c-1.6,0-3-0.6-4.1-1.7c-1.1-1.1-1.6-2.5-1.6-4c0-1,0.3-2,0.8-2.9s1.2-1.6,2.1-2.1C16.9,67.7,17.9,67.5,18.9,67.5z M18.9,69.5
				c-1,0-1.8,0.4-2.5,1.1c-0.7,0.7-1,1.6-1,2.7c0,1.2,0.4,2.2,1.3,2.9c0.7,0.6,1.4,0.8,2.3,0.8c1,0,1.8-0.4,2.5-1.1
				c0.7-0.7,1-1.6,1-2.6c0-1-0.3-1.9-1-2.6C20.7,69.9,19.9,69.5,18.9,69.5z"/>
		</g>
		<path class="st6" d="M35.2,69.4l-1.4,1.4c-0.9-1-1.7-1.3-2.8-1.3c-1,0-1.8,0.4-2.5,1.1c-0.7,0.7-1,1.6-1,2.6
			c0,0.7,0.2,1.4,0.5,1.9c0.3,0.6,0.7,1,1.3,1.3c0.6,0.3,1.2,0.5,1.8,0.5c0.6,0,0.8-0.1,1.3-0.3c0.5-0.2,1-0.6,1.6-1.2l1.3,1.5
			c-0.8,0.8-1.5,1.3-2.2,1.6c-0.7,0.3-1.5,0.5-2.3,0.5c-1.6,0-2.9-0.5-4-1.6c-1-1.1-1.5-2.5-1.5-4.1c0-1.1,0.2-2.1,0.7-2.9
			c0.5-0.8,1.1-1.5,2-2c0.9-0.5,1.8-0.8,2.8-0.8c0.9,0,1.7,0.2,2.5,0.6C34,68.4,34.6,68.7,35.2,69.4"/>
		<polygon class="st6" points="35.2,67.7 44.1,67.7 44.1,69.7 40.7,69.7 40.7,78.7 38.6,78.7 38.6,69.7 35.2,69.7 		"/>
		<polygon class="st6" points="55.3,67.7 57.6,67.7 60.5,75.5 63.6,67.7 65.8,67.7 61.6,78.7 59.4,78.7 		"/>
		<g>
			<path d="M66.7,67.7h2v10.9h-2V67.7z"/>
		</g>
		<path class="st6" d="M87.8,73.4h2.3c0.4,0,0.7,0,0.9-0.1c0.7-0.1,1.1-1,1.1-1.6c0-1.5-0.8-2-2.1-2h-2.2V73.4z M85.6,67.7h2.3
			c1.2,0,3.7,0.1,4.3,0.3c0.5,0.2,0.9,0.6,1.3,1.1c0.4,0.7,0.8,1.5,0.8,2.3c0,0.9-0.2,1.9-0.9,2.6c-0.4,0.5-0.9,0.9-1.6,1.1
			c-0.4,0.1-2.9,0.3-3.9,0.3v3.3h-2.2V67.7z"/>
		<polygon class="st6" points="94.9,67.7 103,67.7 103,69.8 97.1,69.8 97.1,71.9 102.3,71.9 102.3,74 97.1,74 97.1,76.6 103,76.6 
			103,78.7 94.9,78.7 		"/>
		<g>
			<path d="M103.8,67.7h2.9c1.9,0,3.3,0.2,4.2,0.6c0.9,0.4,1.7,1,2.3,1.9c0.6,0.9,0.9,1.9,0.9,3.1c0,0.8-0.2,1.6-0.5,2.3
				c-0.3,0.7-0.8,1.3-1.4,1.8c-0.6,0.5-1.2,0.8-1.9,1c-0.7,0.2-1.9,0.3-3.5,0.3h-3V67.7z M106.3,69.7v6.9h1.1c1.1,0,1.9-0.1,2.5-0.3
				c0.5-0.2,0.9-0.6,1.2-1.1c0.3-0.5,0.5-1.2,0.5-1.9c0-1.2-0.4-2.1-1.2-2.7c-0.7-0.6-1.8-0.9-3.3-0.9H106.3z"/>
		</g>
		<path class="st6" d="M117,72.9h2.8c0.7,0,1.1-0.1,1.4-0.3c0.3-0.2,0.6-0.7,0.6-1.2c0-0.4-0.2-0.9-0.4-1.2
			c-0.1-0.2-0.3-0.3-0.5-0.4c-0.2-0.1-0.6-0.1-1.2-0.1H117V72.9z M115,67.7h2.2c1.2,0,4.4,0.1,4.9,0.3c0.5,0.2,0.9,0.6,1.2,1.1
			c0.3,0.4,0.7,1.2,0.7,2c0,0.9-0.4,1.9-0.8,2.4c-0.3,0.5-0.9,0.7-1.6,1l2.3,4.1h-2.4l-2.3-3.7H117v3.7H115V67.7z"/>
		<g>
			<path d="M128.7,67.7h2.3l4.6,10.9h-2.3l-0.9-2.3h-4.8l-1,2.3h-2.4L128.7,67.7z M129.9,70.6l-1.6,3.8h3.2L129.9,70.6z"/>
		</g>
		<polygon class="st6" points="136.1,67.7 145,67.7 145,69.3 138.8,76.6 144.8,76.6 144.8,78.7 135.8,78.7 135.8,77.1 141.8,69.8 
			136.1,69.8 		"/>
		<g>
			<path d="M149.4,67.7h2.3l4.6,10.9h-2.3l-0.9-2.3h-4.8l-1,2.3h-2.4L149.4,67.7z M150.5,70.6l-1.6,3.8h3.2L150.5,70.6z"/>
		</g>
		<g>
			<path d="M48.6,67.7h2.3l4.6,10.9h-2.3l-0.9-2.3h-4.8l-1,2.3H44L48.6,67.7z M49.8,70.6l-1.6,3.8h3.2L49.8,70.6z"/>
		</g>
		<g>
			<path d="M75.6,67.5c1.5,0,2.9,0.6,4,1.7s1.7,2.5,1.7,4.1c0,1.6-0.5,2.9-1.6,4c-1.1,1.1-2.4,1.7-4,1.7c-1.6,0-3-0.6-4.1-1.7
				c-1.1-1.1-1.6-2.5-1.6-4c0-1,0.3-2,0.8-2.9c0.5-0.9,1.2-1.6,2.1-2.1C73.6,67.7,74.6,67.5,75.6,67.5z M75.5,69.5
				c-1,0-1.8,0.4-2.5,1.1c-0.7,0.7-1,1.6-1,2.7c0,1.2,0.4,2.2,1.3,2.9c0.7,0.6,1.4,0.8,2.3,0.8c1,0,1.8-0.4,2.5-1.1
				c0.7-0.7,1-1.6,1-2.6c0-1-0.3-1.9-1-2.6C77.4,69.9,76.5,69.5,75.5,69.5z"/>
		</g>
	</g>
	<g>
		<path class="st6" d="M77.4,90.3l1.3-1.6c0.1,0.2,0.7,0.7,1.3,1c0.3,0.2,0.7,0.3,0.9,0.4c0.2,0,0.4,0.1,0.7,0.1
			c0.7,0,1.2-0.2,1.6-0.5c0.3-0.3,0.5-0.7,0.5-1.1c0-0.3-0.1-0.5-0.2-0.7c-0.1-0.2-0.4-0.3-0.8-0.5c-0.2-0.1-0.8-0.2-1.7-0.5
			c-1.1-0.3-1.9-0.7-2.4-1.1c-0.6-0.6-1-1.3-1-2.2c0-0.6,0.2-1.1,0.5-1.6c0.3-0.5,0.7-0.9,1.3-1.1c0.6-0.3,1.3-0.4,2.1-0.4
			c1,0,2.1,0.3,3.1,0.6c0.1,0,0.8,0.3,0.8,0.4l-0.9,2c0,0-0.5-0.3-1-0.5c-0.5-0.2-1-0.4-1.2-0.5c-0.2-0.1-0.5-0.1-0.9-0.1
			c-0.6,0-0.9,0.2-1.2,0.4c-0.2,0.2-0.3,0.4-0.3,0.7c0,0.3,0.1,0.5,0.3,0.7c0.3,0.2,0.7,0.5,1.7,0.7c1,0.3,1.8,0.5,2.3,0.8
			c0.5,0.3,0.9,0.6,1.2,1.1c0.3,0.5,0.4,1.1,0.4,1.7c0,0.6-0.2,1.2-0.5,1.8c-0.3,0.5-0.8,1-1.4,1.2c-0.6,0.3-1.4,0.4-2.3,0.4
			c-1.3,0-2.4-0.3-3.1-1C78.2,91,77.4,90.4,77.4,90.3"/>
		<g>
			<path d="M102.2,91.9V80.9h2.3v4.3h4.5v-4.3h2.3v10.9H109v-4.8h-4.5v4.8H102.2z"/>
		</g>
		<g>
			<path d="M112.8,91.9V80.9h2.3v10.9H112.8z"/>
		</g>
		<path class="st6" d="M120.6,80.8h2.3v6.9c0,0.9-0.1,1.6-0.3,2.1c-0.2,0.6-0.6,1.1-1.2,1.5c-0.6,0.4-1.4,0.6-2.3,0.6
			c-0.6,0-1.1-0.1-1.6-0.3c-0.2-0.1-0.7-0.3-1.2-0.6c-0.5-0.3-0.8-0.7-0.9-0.8l1.5-1.5c0.1-0.1,0.1,0,0.2,0.1c0.3,0.3,1,0.8,1.2,1
			c0.2,0.1,0.5,0.2,0.8,0.2c0.5,0,0.9-0.1,1.1-0.4c0.2-0.3,0.3-0.9,0.3-1.8V80.8z"/>
		<path class="st6" d="M27.6,86.6h2.3c0.4,0,0.7,0,0.9-0.1c0.7-0.1,1.1-1,1.1-1.6c0-1.5-0.8-2-2.1-2h-2.2V86.6z M25.4,80.9h2.3
			c1.2,0,3.7,0.1,4.3,0.3c0.5,0.2,0.9,0.6,1.2,1.1c0.4,0.7,0.8,1.5,0.8,2.3c0,0.9-0.2,1.9-0.9,2.6c-0.4,0.5-0.9,0.9-1.6,1.1
			c-0.4,0.1-2.9,0.3-3.9,0.3v3.3h-2.2V80.9z"/>
		<g>
			<path d="M39.7,80.7c1.5,0,2.9,0.6,4,1.7c1.1,1.1,1.7,2.5,1.7,4.1c0,1.6-0.5,2.9-1.6,4c-1.1,1.1-2.4,1.7-4,1.7
				c-1.6,0-3-0.6-4.1-1.7c-1.1-1.1-1.6-2.5-1.6-4c0-1,0.3-2,0.8-2.9c0.5-0.9,1.2-1.6,2.1-2.1C37.8,80.9,38.7,80.7,39.7,80.7z
				 M39.7,82.7c-1,0-1.8,0.4-2.5,1.1c-0.7,0.7-1,1.6-1,2.7c0,1.2,0.4,2.2,1.3,2.9c0.7,0.6,1.4,0.8,2.3,0.8c1,0,1.8-0.4,2.5-1.1
				c0.7-0.7,1-1.6,1-2.6c0-1-0.3-1.9-1-2.6C41.5,83.1,40.7,82.7,39.7,82.7z"/>
		</g>
		<path class="st6" d="M48.7,86.1h2.8c0.7,0,1.1-0.1,1.4-0.3c0.3-0.2,0.6-0.7,0.6-1.2c0-0.4-0.2-0.9-0.4-1.2
			c-0.1-0.2-0.3-0.3-0.5-0.4C52.3,83,52,83,51.4,83h-2.7V86.1z M46.6,80.9h2.2c1.2,0,4.3,0,4.8,0.3c0.5,0.2,1,0.6,1.4,1.1
			c0.3,0.4,0.7,1.2,0.7,2c0,0.9-0.4,1.9-0.8,2.4c-0.3,0.5-0.9,0.7-1.6,1l2.3,4.1h-2.4l-2.3-3.7h-2.3v3.7h-2.1V80.9z"/>
		<path class="st6" d="M58.8,86.1h2.8c0.7,0,1.1-0.1,1.4-0.3c0.3-0.2,0.6-0.7,0.6-1.2c0-0.4-0.2-0.9-0.4-1.2
			c-0.1-0.2-0.3-0.3-0.5-0.4C62.5,83,62.1,83,61.5,83h-2.7V86.1z M56.8,80.9H59c1.2,0,4.3,0,4.8,0.3c0.5,0.2,1,0.6,1.4,1.1
			c0.3,0.4,0.7,1.2,0.7,2c0,0.9-0.4,1.9-0.8,2.4c-0.3,0.5-0.9,0.7-1.6,1l2.3,4.1h-2.4l-2.3-3.7h-2.3v3.7h-2.1V80.9z"/>
		<g>
			<path d="M70.5,80.9h2.3l4.6,10.9H75l-0.9-2.3h-4.8l-1,2.3h-2.4L70.5,80.9z M71.6,83.8L70,87.6h3.2L71.6,83.8z"/>
		</g>
		<polygon class="st6" points="89.9,80.9 98,80.9 98,83 92.1,83 92.1,85.1 97.3,85.1 97.3,87.2 92.1,87.2 92.1,89.8 98,89.8 
			98,91.9 89.9,91.9 		"/>
		<path class="st6" d="M135.8,90.3l1.3-1.6c0.1,0.2,0.7,0.7,1.3,1c0.3,0.2,0.7,0.3,0.9,0.4c0.2,0,0.4,0.1,0.7,0.1
			c0.7,0,1.2-0.2,1.6-0.5c0.3-0.3,0.5-0.7,0.5-1.1c0-0.3-0.1-0.5-0.2-0.7c-0.1-0.2-0.4-0.3-0.8-0.5c-0.2-0.1-0.8-0.2-1.7-0.5
			c-1.1-0.3-1.9-0.7-2.4-1.1c-0.6-0.6-1-1.3-1-2.2c0-0.6,0.2-1.1,0.5-1.6c0.3-0.5,0.7-0.9,1.3-1.1c0.6-0.3,1.3-0.4,2.1-0.4
			c1,0,2.1,0.3,3.1,0.6c0.1,0,0.8,0.3,0.8,0.4l-0.9,2c0,0-0.5-0.3-1-0.5c-0.5-0.2-1-0.4-1.2-0.5c-0.2-0.1-0.5-0.1-0.9-0.1
			c-0.6,0-0.9,0.2-1.2,0.4c-0.2,0.2-0.3,0.4-0.3,0.7c0,0.3,0.1,0.5,0.3,0.7c0.3,0.2,0.7,0.5,1.7,0.7c1,0.3,1.8,0.5,2.3,0.8
			c0.5,0.3,0.9,0.6,1.2,1.1c0.3,0.5,0.4,1.1,0.4,1.7c0,0.6-0.2,1.2-0.5,1.8c-0.3,0.5-0.8,1-1.4,1.2c-0.6,0.3-1.4,0.4-2.3,0.4
			c-1.3,0-2.4-0.3-3.1-1C136.6,91,135.8,90.4,135.8,90.3"/>
		<g>
			<path d="M129.5,80.7c1.5,0,2.9,0.6,4,1.7c1.1,1.1,1.7,2.5,1.7,4.1c0,1.6-0.5,2.9-1.6,4c-1.1,1.1-2.4,1.7-4,1.7
				c-1.6,0-3-0.6-4.1-1.7c-1.1-1.1-1.6-2.5-1.6-4c0-1,0.3-2,0.8-2.9c0.5-0.9,1.2-1.6,2.1-2.1C127.6,80.9,128.5,80.7,129.5,80.7z
				 M129.5,82.7c-1,0-1.8,0.4-2.5,1.1c-0.7,0.7-1,1.6-1,2.7c0,1.2,0.4,2.2,1.3,2.9c0.7,0.6,1.4,0.8,2.3,0.8c1,0,1.8-0.4,2.5-1.1
				c0.7-0.7,1-1.6,1-2.6c0-1-0.3-1.9-1-2.6C131.3,83.1,130.5,82.7,129.5,82.7z"/>
		</g>
	</g>
	<g>
		<path class="st6" d="M53.3,64.4v-1h1.8v2c-0.2,0.2-0.5,0.3-0.9,0.5c-0.4,0.1-0.8,0.2-1.1,0.2c-0.5,0-0.9-0.1-1.3-0.3
			c-0.4-0.2-0.6-0.5-0.8-0.8c-0.2-0.4-0.3-0.8-0.3-1.2c0-0.5,0.1-0.9,0.3-1.2c0.2-0.4,0.5-0.6,0.9-0.8c0.3-0.1,0.7-0.2,1.1-0.2
			c0.6,0,1,0.1,1.4,0.4c0.3,0.2,0.5,0.6,0.6,1L54.1,63c-0.1-0.2-0.2-0.4-0.4-0.5c-0.2-0.1-0.4-0.2-0.7-0.2c-0.4,0-0.7,0.1-1,0.4
			c-0.2,0.3-0.4,0.6-0.4,1.1c0,0.5,0.1,0.9,0.4,1.2c0.2,0.3,0.6,0.4,1,0.4c0.2,0,0.4,0,0.6-0.1c0.2-0.1,0.4-0.2,0.5-0.3v-0.6H53.3z"
			/>
		<g>
			<path d="M55.8,66.1v-4.5h1.9c0.5,0,0.8,0,1,0.1s0.4,0.2,0.5,0.4c0.1,0.2,0.2,0.4,0.2,0.7c0,0.3-0.1,0.6-0.3,0.8
				c-0.2,0.2-0.5,0.4-0.9,0.4c0.2,0.1,0.4,0.2,0.5,0.4c0.1,0.1,0.3,0.4,0.5,0.7l0.5,0.9h-1.1l-0.6-1c-0.2-0.3-0.4-0.6-0.5-0.7
				c-0.1-0.1-0.2-0.2-0.3-0.2s-0.2-0.1-0.4-0.1h-0.2v1.9H55.8z M56.7,63.5h0.7c0.4,0,0.7,0,0.8-0.1c0.1,0,0.2-0.1,0.2-0.2
				s0.1-0.2,0.1-0.3c0-0.2,0-0.3-0.1-0.4c-0.1-0.1-0.2-0.2-0.3-0.2c-0.1,0-0.3,0-0.7,0h-0.7V63.5z"/>
		</g>
		<path class="st6" d="M60.3,61.5h0.9V64c0,0.4,0,0.6,0,0.7c0,0.2,0.1,0.3,0.3,0.4c0.1,0.1,0.5,0.2,0.8,0.2c0.2,0,0.4-0.1,0.6-0.2
			c0.1-0.1,0.2-0.2,0.2-0.4c0-0.2,0-0.4,0-0.8v-2.5H64v2.4c0,0.5,0,0.9-0.1,1.1c0,0.2-0.1,0.4-0.3,0.6c-0.1,0.2-0.3,0.3-0.5,0.4
			c-0.2,0.1-0.5,0.1-0.8,0.1c-0.4,0-0.9,0-1.2-0.1c-0.2-0.1-0.4-0.2-0.5-0.4c-0.1-0.2-0.2-0.3-0.2-0.5c-0.1-0.3-0.1-0.6-0.1-1.1
			V61.5z"/>
		<path class="st6" d="M65.5,62.3v1.4H66c0.2,0,0.5,0,0.8,0c0.2,0,0.3-0.1,0.4-0.3c0.1-0.1,0.1-0.3,0.1-0.5c0-0.2-0.1-0.4-0.2-0.5
			c-0.1-0.1-0.3-0.2-0.5-0.2c-0.1,0-0.3,0-0.6,0H65.5z M64.6,66.1v-4.5H66c0.5,0,0.9,0,1.1,0.1c0.3,0.1,0.5,0.2,0.7,0.4
			c0.2,0.2,0.3,0.5,0.3,0.9c0,0.3,0,0.7-0.1,0.9c-0.1,0.2-0.3,0.3-0.5,0.4c-0.2,0.1-0.3,0.2-0.5,0.2c-0.2,0-0.5,0.1-0.9,0.1h-0.6
			v1.5H64.6z"/>
		<g>
			<path d="M68.5,63.9c0-0.5,0.1-0.8,0.2-1.1c0.1-0.2,0.3-0.4,0.5-0.6c0.2-0.2,0.4-0.3,0.7-0.4c0.3-0.1,0.7-0.2,1.1-0.2
				c0.7,0,1.3,0.2,1.8,0.6c0.4,0.4,0.7,1,0.7,1.7c0,0.7-0.2,1.3-0.7,1.7c-0.4,0.4-1,0.6-1.8,0.6c-0.8,0-1.3-0.2-1.8-0.6
				C68.7,65.1,68.5,64.6,68.5,63.9z M69.5,63.8c0,0.5,0.1,0.9,0.4,1.2c0.3,0.3,0.6,0.4,1,0.4c0.4,0,0.7-0.1,1-0.4
				c0.3-0.3,0.4-0.6,0.4-1.2c0-0.5-0.1-0.9-0.4-1.1c-0.3-0.3-0.6-0.4-1-0.4c-0.4,0-0.8,0.1-1,0.4C69.7,62.9,69.5,63.3,69.5,63.8z"/>
		</g>
		<g>
			<path d="M75.1,66.1v-4.5H76v4.5H75.1z"/>
		</g>
		<g>
			<path d="M76.8,66.1v-4.5h1l2.1,3v-3h1v4.5h-1l-2.1-2.9v2.9H76.8z"/>
		</g>
		<polygon class="st6" points="81.6,66.1 81.6,61.6 82.6,61.6 84,63.7 85.2,61.6 86.3,61.6 86.3,66.1 85.4,66.1 85.4,62.5 
			84.2,65.1 83.6,65.1 82.5,62.5 82.5,66.1 		"/>
		<g>
			<path d="M91.9,61.6h1.8c0.4,0,0.6,0,0.8,0c0.2,0,0.3,0.1,0.5,0.2c0.1,0.1,0.3,0.2,0.3,0.4c0.1,0.2,0.1,0.3,0.1,0.5
				c0,0.2-0.1,0.4-0.2,0.6c-0.1,0.2-0.3,0.3-0.5,0.4c0.3,0.1,0.5,0.2,0.6,0.4c0.1,0.2,0.2,0.4,0.2,0.7c0,0.2,0,0.4-0.1,0.6
				c-0.1,0.2-0.2,0.3-0.4,0.5C95,65.9,94.8,66,94.5,66c-0.1,0-0.5,0-1.1,0h-1.5V61.6z M92.8,62.3v1h0.6c0.3,0,0.6,0,0.7,0
				c0.2,0,0.3-0.1,0.4-0.2c0.1-0.1,0.1-0.2,0.1-0.3c0-0.1,0-0.3-0.1-0.3c-0.1-0.1-0.2-0.1-0.3-0.2c-0.1,0-0.3,0-0.8,0H92.8z
				 M92.8,64.1v1.2h0.8c0.3,0,0.5,0,0.6,0c0.1,0,0.2-0.1,0.3-0.2c0.1-0.1,0.1-0.2,0.1-0.4c0-0.1,0-0.2-0.1-0.3
				c-0.1-0.1-0.2-0.2-0.3-0.2c-0.1,0-0.4-0.1-0.8-0.1H92.8z"/>
		</g>
		<g>
			<path d="M96.4,66.1v-4.5h0.9v4.5H96.4z"/>
		</g>
		<g>
			<path d="M98.1,66.1v-4.4h1v3.7h2.4v0.8H98.1z"/>
		</g>
		<g>
			<path d="M101.6,66.1v-4.5h1.1v4.5H101.6z"/>
		</g>
		<g>
			<path d="M107.6,66.1h-1l-0.4-1h-1.8l-0.4,1h-1l1.7-4.5h0.9L107.6,66.1z M105.9,64.3l-0.6-1.7l-0.6,1.7H105.9z"/>
		</g>
		<g>
			<path d="M108.1,66.1v-4.5h1.9c0.5,0,0.8,0,1,0.1c0.2,0.1,0.4,0.2,0.5,0.4c0.1,0.2,0.2,0.4,0.2,0.7c0,0.3-0.1,0.6-0.3,0.8
				c-0.2,0.2-0.5,0.4-0.9,0.4c0.2,0.1,0.4,0.2,0.5,0.4s0.3,0.4,0.5,0.7l0.5,0.9H111l-0.6-1c-0.2-0.3-0.4-0.6-0.5-0.7
				c-0.1-0.1-0.2-0.2-0.3-0.2c-0.1,0-0.2-0.1-0.5-0.1H109v1.9H108.1z M109,63.5h0.7c0.4,0,0.7,0,0.8-0.1c0.1,0,0.2-0.1,0.3-0.2
				c0.1-0.1,0.1-0.2,0.1-0.3c0-0.2,0-0.3-0.1-0.4c-0.1-0.1-0.2-0.2-0.3-0.2c-0.1,0-0.3,0-0.7,0H109V63.5z"/>
		</g>
		<g>
			<path d="M112.4,66.1v-4.5h0.9v4.5H112.4z"/>
		</g>
		<g>
			<path d="M86.7,63.9c0-0.5,0.1-0.8,0.2-1.1c0.1-0.2,0.3-0.4,0.5-0.6c0.2-0.2,0.4-0.3,0.7-0.4c0.3-0.1,0.7-0.2,1.1-0.2
				c0.7,0,1.3,0.2,1.8,0.6c0.4,0.4,0.7,1,0.7,1.7c0,0.7-0.2,1.3-0.7,1.7c-0.4,0.4-1,0.6-1.8,0.6c-0.8,0-1.3-0.2-1.8-0.6
				C86.9,65.1,86.7,64.6,86.7,63.9z M87.7,63.8c0,0.5,0.1,0.9,0.4,1.2c0.3,0.3,0.6,0.4,1,0.4c0.4,0,0.7-0.1,1-0.4
				c0.3-0.3,0.4-0.6,0.4-1.2c0-0.5-0.1-0.9-0.4-1.1c-0.3-0.3-0.6-0.4-1-0.4c-0.4,0-0.8,0.1-1,0.4C87.8,62.9,87.7,63.3,87.7,63.8z"/>
		</g>
		<g>
			<path d="M113.8,63.9c0-0.5,0.1-0.8,0.2-1.1c0.1-0.2,0.3-0.4,0.5-0.6c0.2-0.2,0.4-0.3,0.7-0.4c0.3-0.1,0.7-0.2,1.1-0.2
				c0.7,0,1.3,0.2,1.8,0.6c0.4,0.4,0.7,1,0.7,1.7c0,0.7-0.2,1.3-0.7,1.7c-0.4,0.4-1,0.6-1.8,0.6c-0.8,0-1.3-0.2-1.8-0.6
				C114.1,65.1,113.8,64.6,113.8,63.9z M114.9,63.8c0,0.5,0.1,0.9,0.4,1.2c0.3,0.3,0.6,0.4,1,0.4c0.4,0,0.7-0.1,1-0.4
				c0.3-0.3,0.4-0.6,0.4-1.2c0-0.5-0.1-0.9-0.4-1.1c-0.3-0.3-0.6-0.4-1-0.4c-0.4,0-0.8,0.1-1,0.4C115,62.9,114.9,63.3,114.9,63.8z"
				/>
		</g>
	</g>
</g>
</svg>
