<?xml version="1.0" encoding="utf-8"?>
<!-- Generator: Adobe Illustrator 22.1.0, SVG Export Plug-In . SVG Version: 6.00 Build 0)  -->
<svg version="1.1" id="Capa_1" xmlns="http://www.w3.org/2000/svg" xmlns:xlink="http://www.w3.org/1999/xlink" x="0px" y="0px"
	 viewBox="0 0 197.3 59" style="enable-background:new 0 0 197.3 59;" xml:space="preserve">
<style type="text/css">
	.st0{fill-rule:evenodd;clip-rule:evenodd;fill:#2A90C9;}
	.st1{fill:#006EB1;}
	.st2{fill-rule:evenodd;clip-rule:evenodd;fill:#004995;}
	.st3{fill-rule:evenodd;clip-rule:evenodd;fill:#006EB1;}
	.st4{fill-rule:evenodd;clip-rule:evenodd;fill:#003D7A;}
	.st5{fill-rule:evenodd;clip-rule:evenodd;fill:#002B62;}
	.st6{fill-rule:evenodd;clip-rule:evenodd;}
</style>
<g>
	<polygon points="33.5,12.8 36.9,14.9 37.7,20.8 42.2,23 56.9,57.6 58.7,57.6 42.8,22 38.3,19.2 37.6,13.9 33.6,11.3 	"/>
	<polygon points="25.9,3 33.9,7.6 34,5.8 24.8,0.7 1.6,57.8 4.6,57.8 	"/>
	<polygon class="st0" points="4.2,57.8 29.7,57.8 34.3,6.7 25.9,2 	"/>
	<polygon class="st1" points="33.5,15.8 42.8,57.8 29.5,57.8 	"/>
	<polygon class="st2" points="57.2,57.6 44.5,57.8 38,19.9 42.1,22.5 	"/>
	<polygon class="st3" points="33.7,12.1 37,14.2 37.6,19.6 33.3,16.7 	"/>
	<polygon class="st4" points="28.2,57.8 29.7,57.8 33.8,11.8 28.2,8.5 	"/>
	<polygon class="st5" points="44.9,57.8 42.3,57.8 33.4,16.8 38.3,20.1 	"/>
</g>
<g>
	<g>
		<g>
			<path d="M58.7,21.3c1.5,0,2.9,0.6,4,1.7c1.1,1.1,1.7,2.5,1.7,4.1c0,1.6-0.5,2.9-1.6,4c-1.1,1.1-2.4,1.7-4,1.7
				c-1.6,0-3-0.6-4.1-1.7S53,28.6,53,27c0-1,0.3-2,0.8-2.9s1.2-1.6,2.1-2.1C56.7,21.6,57.7,21.3,58.7,21.3z M58.7,23.3
				c-1,0-1.8,0.4-2.5,1.1c-0.7,0.7-1,1.6-1,2.7c0,1.2,0.4,2.2,1.3,2.9c0.7,0.6,1.4,0.8,2.3,0.8c1,0,1.8-0.4,2.5-1.1
				c0.7-0.7,1-1.6,1-2.6c0-1-0.3-1.9-1-2.6C60.5,23.7,59.7,23.3,58.7,23.3z"/>
		</g>
		<path class="st6" d="M74.9,23.3l-1.4,1.4c-0.9-1-1.7-1.3-2.8-1.3c-1,0-1.8,0.4-2.5,1.1c-0.7,0.7-1,1.6-1,2.6
			c0,0.7,0.2,1.4,0.5,1.9c0.3,0.6,0.7,1,1.3,1.3c0.6,0.3,1.2,0.5,1.8,0.5c0.6,0,0.8-0.1,1.3-0.3c0.5-0.2,1-0.6,1.6-1.2l1.3,1.5
			c-0.8,0.8-1.5,1.3-2.2,1.6c-0.7,0.3-1.5,0.5-2.3,0.5c-1.6,0-2.9-0.5-4-1.6c-1-1.1-1.5-2.5-1.5-4.1c0-1.1,0.2-2.1,0.7-2.9
			c0.5-0.8,1.1-1.5,2-2c0.9-0.5,1.8-0.8,2.8-0.8c0.9,0,1.7,0.2,2.5,0.6C73.8,22.2,74.4,22.6,74.9,23.3"/>
		<polygon class="st6" points="75,21.6 83.9,21.6 83.9,23.5 80.5,23.5 80.5,32.5 78.4,32.5 78.4,23.5 75,23.5 		"/>
		<polygon class="st6" points="95.1,21.6 97.4,21.6 100.3,29.3 103.3,21.6 105.6,21.6 101.4,32.5 99.2,32.5 		"/>
		<g>
			<path d="M106.5,21.6h2v10.9h-2V21.6z"/>
		</g>
		<path class="st6" d="M127.6,27.3h2.3c0.4,0,0.7,0,0.9-0.1c0.7-0.1,1.1-1,1.1-1.6c0-1.5-0.8-2-2.1-2h-2.2V27.3z M125.4,21.6h2.3
			c1.2,0,3.7,0.1,4.3,0.3c0.5,0.2,0.9,0.6,1.3,1.1c0.4,0.7,0.8,1.5,0.8,2.3c0,0.9-0.2,1.9-0.9,2.6c-0.4,0.5-0.9,0.9-1.6,1.1
			c-0.4,0.1-2.9,0.3-3.9,0.3v3.3h-2.2V21.6z"/>
		<polygon class="st6" points="134.7,21.6 142.8,21.6 142.8,23.6 136.9,23.6 136.9,25.8 142.1,25.8 142.1,27.8 136.9,27.8 
			136.9,30.5 142.8,30.5 142.8,32.5 134.7,32.5 		"/>
		<g>
			<path d="M143.6,21.6h2.9c1.9,0,3.3,0.2,4.2,0.6c0.9,0.4,1.7,1,2.3,1.9c0.6,0.9,0.9,1.9,0.9,3.1c0,0.8-0.2,1.6-0.5,2.3
				c-0.3,0.7-0.8,1.3-1.4,1.8c-0.6,0.5-1.2,0.8-1.9,1c-0.7,0.2-1.9,0.3-3.5,0.3h-3V21.6z M146,23.6v6.9h1.1c1.1,0,1.9-0.1,2.5-0.3
				c0.5-0.2,0.9-0.6,1.2-1.1c0.3-0.5,0.5-1.2,0.5-1.9c0-1.2-0.4-2.1-1.2-2.7c-0.7-0.6-1.8-0.9-3.3-0.9H146z"/>
		</g>
		<path class="st6" d="M156.8,26.8h2.8c0.7,0,1.1-0.1,1.4-0.3c0.3-0.2,0.6-0.7,0.6-1.2c0-0.4-0.2-0.9-0.4-1.2
			c-0.1-0.2-0.3-0.3-0.5-0.4c-0.2-0.1-0.6-0.1-1.2-0.1h-2.7V26.8z M154.7,21.6h2.2c1.2,0,4.4,0.1,4.9,0.3c0.5,0.2,0.9,0.6,1.2,1.1
			c0.3,0.4,0.7,1.2,0.7,2c0,0.9-0.4,1.9-0.8,2.4c-0.3,0.5-0.9,0.7-1.6,1l2.3,4.1h-2.4l-2.3-3.7h-2.3v3.7h-2.1V21.6z"/>
		<g>
			<path d="M168.5,21.6h2.3l4.6,10.9H173l-0.9-2.3h-4.8l-1,2.3h-2.4L168.5,21.6z M169.7,24.5l-1.6,3.8h3.2L169.7,24.5z"/>
		</g>
		<polygon class="st6" points="175.9,21.6 184.7,21.6 184.8,23.1 178.6,30.5 184.6,30.5 184.6,32.5 175.6,32.5 175.6,31 181.6,23.6 
			175.9,23.6 		"/>
		<g>
			<path d="M189.2,21.6h2.3l4.6,10.9h-2.3l-0.9-2.3h-4.8l-1,2.3h-2.4L189.2,21.6z M190.3,24.5l-1.6,3.8h3.2L190.3,24.5z"/>
		</g>
		<g>
			<path d="M88.4,21.6h2.3l4.6,10.9h-2.3L92,30.2h-4.8l-1,2.3h-2.4L88.4,21.6z M89.6,24.5L88,28.2h3.2L89.6,24.5z"/>
		</g>
		<g>
			<path d="M115.3,21.3c1.5,0,2.9,0.6,4,1.7s1.7,2.5,1.7,4.1c0,1.6-0.5,2.9-1.6,4s-2.4,1.7-4,1.7c-1.6,0-3-0.6-4.1-1.7
				c-1.1-1.1-1.6-2.5-1.6-4c0-1,0.3-2,0.8-2.9c0.5-0.9,1.2-1.6,2.1-2.1C113.4,21.6,114.3,21.3,115.3,21.3z M115.3,23.3
				c-1,0-1.8,0.4-2.5,1.1c-0.7,0.7-1,1.6-1,2.7c0,1.2,0.4,2.2,1.3,2.9c0.7,0.6,1.4,0.8,2.3,0.8c1,0,1.8-0.4,2.5-1.1
				c0.7-0.7,1-1.6,1-2.6c0-1-0.3-1.9-1-2.6C117.2,23.7,116.3,23.3,115.3,23.3z"/>
		</g>
	</g>
	<g>
		<path class="st6" d="M117.2,44.2l1.3-1.6c0.1,0.2,0.7,0.7,1.3,1c0.3,0.2,0.7,0.3,0.9,0.4c0.2,0,0.4,0.1,0.7,0.1
			c0.7,0,1.2-0.2,1.6-0.5s0.5-0.7,0.5-1.1c0-0.3-0.1-0.5-0.2-0.7c-0.1-0.2-0.4-0.3-0.8-0.5c-0.2-0.1-0.8-0.2-1.7-0.5
			c-1.1-0.3-1.9-0.7-2.4-1.1c-0.6-0.6-1-1.3-1-2.2c0-0.6,0.2-1.1,0.5-1.6c0.3-0.5,0.7-0.9,1.3-1.1c0.6-0.3,1.3-0.4,2.1-0.4
			c1,0,2.1,0.3,3.1,0.6c0.1,0,0.8,0.3,0.8,0.4l-0.9,2c0,0-0.5-0.3-1-0.5c-0.5-0.2-1-0.4-1.2-0.5c-0.2-0.1-0.5-0.1-0.9-0.1
			c-0.6,0-0.9,0.2-1.2,0.4c-0.2,0.2-0.3,0.4-0.3,0.7c0,0.3,0.1,0.5,0.3,0.7c0.3,0.2,0.7,0.5,1.7,0.7c1,0.3,1.8,0.5,2.3,0.8
			c0.5,0.3,0.9,0.6,1.2,1.1c0.3,0.5,0.4,1.1,0.4,1.7c0,0.6-0.2,1.2-0.5,1.8c-0.3,0.5-0.8,1-1.4,1.2c-0.6,0.3-1.4,0.4-2.3,0.4
			c-1.3,0-2.4-0.3-3.1-1C118,44.8,117.2,44.2,117.2,44.2"/>
		<g>
			<path d="M142,45.7V34.8h2.3v4.3h4.5v-4.3h2.3v10.9h-2.3v-4.8h-4.5v4.8H142z"/>
		</g>
		<g>
			<path d="M152.5,45.7V34.8h2.3v10.9H152.5z"/>
		</g>
		<path class="st6" d="M160.4,34.7h2.3v6.9c0,0.9-0.1,1.6-0.3,2.1c-0.2,0.6-0.6,1.1-1.2,1.5c-0.6,0.4-1.4,0.6-2.3,0.6
			c-0.6,0-1.1-0.1-1.6-0.3c-0.2-0.1-0.7-0.3-1.2-0.6c-0.5-0.3-0.8-0.7-0.9-0.8l1.5-1.5c0.1-0.1,0.1,0,0.2,0.1c0.3,0.3,1,0.8,1.2,1
			c0.2,0.1,0.5,0.2,0.8,0.2c0.5,0,0.9-0.1,1.1-0.4c0.2-0.3,0.3-0.9,0.3-1.8V34.7z"/>
		<path class="st6" d="M67.3,40.5h2.3c0.4,0,0.7,0,0.9-0.1c0.7-0.1,1.1-1,1.1-1.6c0-1.5-0.8-2-2.1-2h-2.2V40.5z M65.2,34.8h2.3
			c1.2,0,3.7,0.1,4.3,0.3c0.5,0.2,0.9,0.6,1.2,1.1c0.4,0.7,0.8,1.5,0.8,2.3c0,0.9-0.2,1.9-0.9,2.6c-0.4,0.5-0.9,0.9-1.6,1.1
			c-0.4,0.1-2.9,0.3-3.9,0.3v3.3h-2.2V34.8z"/>
		<g>
			<path d="M79.5,34.5c1.5,0,2.9,0.6,4,1.7c1.1,1.1,1.7,2.5,1.7,4.1c0,1.6-0.5,2.9-1.6,4c-1.1,1.1-2.4,1.7-4,1.7
				c-1.6,0-3-0.6-4.1-1.7c-1.1-1.1-1.6-2.5-1.6-4c0-1,0.3-2,0.8-2.9c0.5-0.9,1.2-1.6,2.1-2.1C77.5,34.8,78.5,34.5,79.5,34.5z
				 M79.5,36.5c-1,0-1.8,0.4-2.5,1.1c-0.7,0.7-1,1.6-1,2.7c0,1.2,0.4,2.2,1.3,2.9c0.7,0.6,1.4,0.8,2.3,0.8c1,0,1.8-0.4,2.5-1.1
				c0.7-0.7,1-1.6,1-2.6c0-1-0.3-1.9-1-2.6C81.3,36.9,80.5,36.5,79.5,36.5z"/>
		</g>
		<path class="st6" d="M88.5,40h2.8c0.7,0,1.1-0.1,1.4-0.3c0.3-0.2,0.6-0.7,0.6-1.2c0-0.4-0.2-0.9-0.4-1.2c-0.1-0.2-0.3-0.3-0.5-0.4
			c-0.2-0.1-0.6-0.1-1.2-0.1h-2.7V40z M86.4,34.8h2.2c1.2,0,4.3,0,4.8,0.3c0.5,0.2,1,0.6,1.4,1.1c0.3,0.4,0.7,1.2,0.7,2
			c0,0.9-0.4,1.9-0.8,2.4c-0.3,0.5-0.9,0.7-1.6,1l2.3,4.1H93L90.7,42h-2.3v3.7h-2.1V34.8z"/>
		<path class="st6" d="M98.6,40h2.8c0.7,0,1.1-0.1,1.4-0.3c0.3-0.2,0.6-0.7,0.6-1.2c0-0.4-0.2-0.9-0.4-1.2c-0.1-0.2-0.3-0.3-0.5-0.4
			c-0.2-0.1-0.6-0.1-1.2-0.1h-2.7V40z M96.5,34.8h2.2c1.2,0,4.3,0,4.8,0.3c0.5,0.2,1,0.6,1.4,1.1c0.3,0.4,0.7,1.2,0.7,2
			c0,0.9-0.4,1.9-0.8,2.4c-0.3,0.5-0.9,0.7-1.6,1l2.3,4.1h-2.4l-2.3-3.7h-2.3v3.7h-2.1V34.8z"/>
		<g>
			<path d="M110.3,34.8h2.3l4.6,10.9h-2.3l-0.9-2.3H109l-1,2.3h-2.4L110.3,34.8z M111.4,37.7l-1.6,3.8h3.2L111.4,37.7z"/>
		</g>
		<polygon class="st6" points="129.7,34.8 137.8,34.8 137.8,36.8 131.9,36.8 131.9,39 137.1,39 137.1,41 131.9,41 131.9,43.7 
			137.8,43.7 137.8,45.7 129.7,45.7 		"/>
		<path class="st6" d="M175.6,44.2l1.3-1.6c0.1,0.2,0.7,0.7,1.3,1c0.3,0.2,0.7,0.3,0.9,0.4c0.2,0,0.4,0.1,0.7,0.1
			c0.7,0,1.2-0.2,1.6-0.5c0.3-0.3,0.5-0.7,0.5-1.1c0-0.3-0.1-0.5-0.2-0.7c-0.1-0.2-0.4-0.3-0.8-0.5c-0.2-0.1-0.8-0.2-1.7-0.5
			c-1.1-0.3-1.9-0.7-2.4-1.1c-0.6-0.6-1-1.3-1-2.2c0-0.6,0.2-1.1,0.5-1.6c0.3-0.5,0.7-0.9,1.3-1.1c0.6-0.3,1.3-0.4,2.1-0.4
			c1,0,2.1,0.3,3.1,0.6c0.1,0,0.8,0.3,0.8,0.4l-0.9,2c0,0-0.5-0.3-1-0.5c-0.5-0.2-1-0.4-1.2-0.5c-0.2-0.1-0.5-0.1-0.9-0.1
			c-0.6,0-0.9,0.2-1.2,0.4c-0.2,0.2-0.3,0.4-0.3,0.7c0,0.3,0.1,0.5,0.3,0.7c0.3,0.2,0.7,0.5,1.7,0.7c1,0.3,1.8,0.5,2.3,0.8
			c0.5,0.3,0.9,0.6,1.2,1.1c0.3,0.5,0.4,1.1,0.4,1.7c0,0.6-0.2,1.2-0.5,1.8c-0.3,0.5-0.8,1-1.4,1.2c-0.6,0.3-1.4,0.4-2.3,0.4
			c-1.3,0-2.4-0.3-3.1-1C176.4,44.8,175.6,44.2,175.6,44.2"/>
		<g>
			<path d="M169.3,34.5c1.5,0,2.9,0.6,4,1.7c1.1,1.1,1.7,2.5,1.7,4.1c0,1.6-0.5,2.9-1.6,4c-1.1,1.1-2.4,1.7-4,1.7
				c-1.6,0-3-0.6-4.1-1.7c-1.1-1.1-1.6-2.5-1.6-4c0-1,0.3-2,0.8-2.9c0.5-0.9,1.2-1.6,2.1-2.1C167.3,34.8,168.3,34.5,169.3,34.5z
				 M169.3,36.5c-1,0-1.8,0.4-2.5,1.1c-0.7,0.7-1,1.6-1,2.7c0,1.2,0.4,2.2,1.3,2.9c0.7,0.6,1.4,0.8,2.3,0.8c1,0,1.8-0.4,2.5-1.1
				c0.7-0.7,1-1.6,1-2.6c0-1-0.3-1.9-1-2.6C171.1,36.9,170.3,36.5,169.3,36.5z"/>
		</g>
	</g>
	<g>
		<path class="st6" d="M93.1,18.3v-1h1.8v2c-0.2,0.2-0.5,0.3-0.9,0.5c-0.4,0.1-0.8,0.2-1.1,0.2c-0.5,0-0.9-0.1-1.3-0.3
			c-0.4-0.2-0.6-0.5-0.8-0.8c-0.2-0.4-0.3-0.8-0.3-1.2c0-0.5,0.1-0.9,0.3-1.2c0.2-0.4,0.5-0.6,0.9-0.8c0.3-0.1,0.7-0.2,1.1-0.2
			c0.6,0,1,0.1,1.4,0.4c0.3,0.2,0.5,0.6,0.6,1l-0.9,0.2c-0.1-0.2-0.2-0.4-0.4-0.5c-0.2-0.1-0.4-0.2-0.7-0.2c-0.4,0-0.7,0.1-1,0.4
			c-0.2,0.3-0.4,0.6-0.4,1.1c0,0.5,0.1,0.9,0.4,1.2c0.2,0.3,0.6,0.4,1,0.4c0.2,0,0.4,0,0.6-0.1c0.2-0.1,0.4-0.2,0.5-0.3v-0.6H93.1z"
			/>
		<g>
			<path d="M95.6,19.9v-4.5h1.9c0.5,0,0.8,0,1,0.1c0.2,0.1,0.4,0.2,0.5,0.4c0.1,0.2,0.2,0.4,0.2,0.7c0,0.3-0.1,0.6-0.3,0.8
				c-0.2,0.2-0.5,0.4-0.9,0.4c0.2,0.1,0.4,0.2,0.5,0.4c0.1,0.1,0.3,0.4,0.5,0.7l0.5,0.9h-1.1l-0.6-1c-0.2-0.3-0.4-0.6-0.5-0.7
				c-0.1-0.1-0.2-0.2-0.3-0.2c-0.1,0-0.2-0.1-0.4-0.1h-0.2v1.9H95.6z M96.5,17.3h0.7c0.4,0,0.7,0,0.8-0.1c0.1,0,0.2-0.1,0.2-0.2
				s0.1-0.2,0.1-0.3c0-0.2,0-0.3-0.1-0.4c-0.1-0.1-0.2-0.2-0.3-0.2c-0.1,0-0.3,0-0.7,0h-0.7V17.3z"/>
		</g>
		<path class="st6" d="M100,15.4h0.9v2.4c0,0.4,0,0.6,0,0.7c0,0.2,0.1,0.3,0.3,0.4c0.1,0.1,0.5,0.2,0.8,0.2c0.2,0,0.4-0.1,0.6-0.2
			c0.1-0.1,0.2-0.2,0.2-0.4c0-0.2,0-0.4,0-0.8v-2.5h0.9v2.4c0,0.5,0,0.9-0.1,1.1c0,0.2-0.1,0.4-0.3,0.6c-0.1,0.2-0.3,0.3-0.5,0.4
			c-0.2,0.1-0.5,0.1-0.8,0.1c-0.4,0-0.9,0-1.2-0.1c-0.2-0.1-0.4-0.2-0.5-0.4c-0.1-0.2-0.2-0.3-0.2-0.5c-0.1-0.3-0.1-0.6-0.1-1.1
			V15.4z"/>
		<path class="st6" d="M105.3,16.2v1.4h0.5c0.2,0,0.5,0,0.8,0c0.2,0,0.3-0.1,0.4-0.3c0.1-0.1,0.1-0.3,0.1-0.5c0-0.2-0.1-0.4-0.2-0.5
			c-0.1-0.1-0.3-0.2-0.5-0.2c-0.1,0-0.3,0-0.6,0H105.3z M104.4,19.9v-4.5h1.4c0.5,0,0.9,0,1.1,0.1c0.3,0.1,0.5,0.2,0.7,0.4
			c0.2,0.2,0.3,0.5,0.3,0.9c0,0.3,0,0.7-0.1,0.9c-0.1,0.2-0.3,0.3-0.5,0.4c-0.2,0.1-0.3,0.2-0.5,0.2c-0.2,0-0.5,0.1-0.9,0.1h-0.6
			v1.5H104.4z"/>
		<g>
			<path d="M108.3,17.7c0-0.5,0.1-0.8,0.2-1.1c0.1-0.2,0.3-0.4,0.5-0.6c0.2-0.2,0.4-0.3,0.7-0.4c0.3-0.1,0.7-0.2,1.1-0.2
				c0.7,0,1.3,0.2,1.8,0.6c0.4,0.4,0.7,1,0.7,1.7c0,0.7-0.2,1.3-0.7,1.7c-0.4,0.4-1,0.6-1.8,0.6c-0.8,0-1.3-0.2-1.8-0.6
				S108.3,18.4,108.3,17.7z M109.3,17.7c0,0.5,0.1,0.9,0.4,1.2c0.3,0.3,0.6,0.4,1,0.4c0.4,0,0.7-0.1,1-0.4c0.3-0.3,0.4-0.6,0.4-1.2
				c0-0.5-0.1-0.9-0.4-1.1c-0.3-0.3-0.6-0.4-1-0.4c-0.4,0-0.8,0.1-1,0.4C109.5,16.8,109.3,17.2,109.3,17.7z"/>
		</g>
		<g>
			<path d="M114.9,19.9v-4.5h0.9v4.5H114.9z"/>
		</g>
		<g>
			<path d="M116.6,19.9v-4.5h1l2.1,3v-3h1v4.5h-1l-2.1-2.9v2.9H116.6z"/>
		</g>
		<polygon class="st6" points="121.4,19.9 121.4,15.4 122.4,15.4 123.7,17.6 124.9,15.4 126.1,15.4 126.1,19.9 125.2,19.9 
			125.2,16.4 123.9,18.9 123.4,18.9 122.3,16.4 122.3,19.9 		"/>
		<g>
			<path d="M131.7,15.4h1.8c0.4,0,0.6,0,0.8,0c0.2,0,0.3,0.1,0.5,0.2c0.1,0.1,0.3,0.2,0.3,0.4c0.1,0.2,0.1,0.3,0.1,0.5
				c0,0.2-0.1,0.4-0.2,0.6c-0.1,0.2-0.3,0.3-0.5,0.4c0.3,0.1,0.5,0.2,0.6,0.4c0.1,0.2,0.2,0.4,0.2,0.7c0,0.2,0,0.4-0.1,0.6
				c-0.1,0.2-0.2,0.3-0.4,0.5c-0.2,0.1-0.4,0.2-0.6,0.2c-0.1,0-0.5,0-1.1,0h-1.5V15.4z M132.6,16.2v1h0.6c0.3,0,0.6,0,0.7,0
				c0.2,0,0.3-0.1,0.4-0.2c0.1-0.1,0.1-0.2,0.1-0.3c0-0.1,0-0.3-0.1-0.3c-0.1-0.1-0.2-0.1-0.3-0.2c-0.1,0-0.3,0-0.8,0H132.6z
				 M132.6,18v1.2h0.8c0.3,0,0.5,0,0.6,0c0.1,0,0.2-0.1,0.3-0.2c0.1-0.1,0.1-0.2,0.1-0.4c0-0.1,0-0.2-0.1-0.3
				c-0.1-0.1-0.2-0.2-0.3-0.2c-0.1,0-0.4-0.1-0.8-0.1H132.6z"/>
		</g>
		<g>
			<path d="M136.2,19.9v-4.5h0.9v4.5H136.2z"/>
		</g>
		<g>
			<path d="M137.9,19.9v-4.4h1v3.7h2.4v0.8H137.9z"/>
		</g>
		<g>
			<path d="M141.4,19.9v-4.5h1.1v4.5H141.4z"/>
		</g>
		<g>
			<path d="M147.3,19.9h-1l-0.4-1h-1.8l-0.4,1h-1l1.7-4.5h0.9L147.3,19.9z M145.7,18.1l-0.6-1.7l-0.6,1.7H145.7z"/>
		</g>
		<g>
			<path d="M147.9,19.9v-4.5h1.9c0.5,0,0.8,0,1,0.1c0.2,0.1,0.4,0.2,0.5,0.4c0.1,0.2,0.2,0.4,0.2,0.7c0,0.3-0.1,0.6-0.3,0.8
				c-0.2,0.2-0.5,0.4-0.9,0.4c0.2,0.1,0.4,0.2,0.5,0.4s0.3,0.4,0.5,0.7l0.5,0.9h-1.1l-0.6-1c-0.2-0.3-0.4-0.6-0.5-0.7
				c-0.1-0.1-0.2-0.2-0.3-0.2c-0.1,0-0.2-0.1-0.5-0.1h-0.2v1.9H147.9z M148.8,17.3h0.7c0.4,0,0.7,0,0.8-0.1c0.1,0,0.2-0.1,0.3-0.2
				c0.1-0.1,0.1-0.2,0.1-0.3c0-0.2,0-0.3-0.1-0.4c-0.1-0.1-0.2-0.2-0.3-0.2c-0.1,0-0.3,0-0.7,0h-0.7V17.3z"/>
		</g>
		<g>
			<path d="M152.2,19.9v-4.5h0.9v4.5H152.2z"/>
		</g>
		<g>
			<path d="M126.4,17.7c0-0.5,0.1-0.8,0.2-1.1c0.1-0.2,0.3-0.4,0.5-0.6c0.2-0.2,0.4-0.3,0.7-0.4c0.3-0.1,0.7-0.2,1.1-0.2
				c0.7,0,1.3,0.2,1.8,0.6c0.4,0.4,0.7,1,0.7,1.7c0,0.7-0.2,1.3-0.7,1.7c-0.4,0.4-1,0.6-1.8,0.6c-0.8,0-1.3-0.2-1.8-0.6
				S126.4,18.4,126.4,17.7z M127.5,17.7c0,0.5,0.1,0.9,0.4,1.2s0.6,0.4,1,0.4c0.4,0,0.7-0.1,1-0.4c0.3-0.3,0.4-0.6,0.4-1.2
				c0-0.5-0.1-0.9-0.4-1.1c-0.3-0.3-0.6-0.4-1-0.4c-0.4,0-0.8,0.1-1,0.4C127.6,16.8,127.5,17.2,127.5,17.7z"/>
		</g>
		<g>
			<path d="M153.6,17.7c0-0.5,0.1-0.8,0.2-1.1c0.1-0.2,0.3-0.4,0.5-0.6c0.2-0.2,0.4-0.3,0.7-0.4c0.3-0.1,0.7-0.2,1.1-0.2
				c0.7,0,1.3,0.2,1.8,0.6c0.4,0.4,0.7,1,0.7,1.7c0,0.7-0.2,1.3-0.7,1.7c-0.4,0.4-1,0.6-1.8,0.6c-0.8,0-1.3-0.2-1.8-0.6
				S153.6,18.4,153.6,17.7z M154.7,17.7c0,0.5,0.1,0.9,0.4,1.2c0.3,0.3,0.6,0.4,1,0.4s0.7-0.1,1-0.4c0.3-0.3,0.4-0.6,0.4-1.2
				c0-0.5-0.1-0.9-0.4-1.1c-0.3-0.3-0.6-0.4-1-0.4c-0.4,0-0.8,0.1-1,0.4C154.8,16.8,154.7,17.2,154.7,17.7z"/>
		</g>
	</g>
</g>
</svg>
